<svg id="Layer_1" data-name="Layer 1" xmlns="http://www.w3.org/2000/svg" viewBox="0 0 211.11 59"><defs><style>.cls-1{fill:none;}.cls-2,.cls-3{fill:#fff;}.cls-2{stroke:#fff;stroke-miterlimit:10;}</style></defs><title>logoWithText</title><path class="cls-1" d="M25.41,49H52.15a1.12,1.12,0,0,0,1.11-1.66L50.09,39.6A2.89,2.89,0,0,0,47.62,38H29.94a2.9,2.9,0,0,0-2.47,1.65l-3.16,7.72A1.11,1.11,0,0,0,25.41,49Z" transform="translate(-5.54 -8.5)"/><path class="cls-1" d="M52.65,26.25a.89.89,0,0,0-.9.89V30a.9.9,0,0,0,.9.9h6a.9.9,0,0,0,.9-.9V27.14a.9.9,0,0,0-.9-.89Z" transform="translate(-5.54 -8.5)"/><path class="cls-1" d="M30.57,53.49H24.52a.9.9,0,0,0-.89.9v2.87a.89.89,0,0,0,.89.89h6.05a.89.89,0,0,0,.89-.89V54.39A.9.9,0,0,0,30.57,53.49Z" transform="translate(-5.54 -8.5)"/><path class="cls-1" d="M6.44,42.19h6a.89.89,0,0,0,.9-.89V38.43a.9.9,0,0,0-.9-.9h-6a.9.9,0,0,0-.9.9V41.3A.89.89,0,0,0,6.44,42.19Z" transform="translate(-5.54 -8.5)"/><path class="cls-1" d="M53,53.49h-6a.9.9,0,0,0-.9.9v2.87a.9.9,0,0,0,.9.89h6a.89.89,0,0,0,.9-.89V54.39A.9.9,0,0,0,53,53.49Z" transform="translate(-5.54 -8.5)"/><path class="cls-1" d="M7.33,33H34.06a1.11,1.11,0,0,0,1.11-1.65L32,23.64A2.89,2.89,0,0,0,29.54,22H11.86a2.9,2.9,0,0,0-2.47,1.66L6.22,31.36A1.11,1.11,0,0,0,7.33,33Z" transform="translate(-5.54 -8.5)"/><path class="cls-2" d="M45.18,12.35a2.9,2.9,0,0,1,2.47-1.65H65.33a2.9,2.9,0,0,1,2.47,1.65L71,20.07a1.12,1.12,0,0,1-1.11,1.66h-22a6.77,6.77,0,0,1,.33.66l1.53,3.74.58-.16a3.76,3.76,0,0,1,1-.14,3.34,3.34,0,0,1,3.37,3.46v1.08a3.87,3.87,0,0,1-1.89,3.32c.09.29.18.61.26.93h8.34a6.36,6.36,0,0,1,1.42.39h5.82v2.5a2.24,2.24,0,0,0,2.24,2.23h2.69a2.24,2.24,0,0,0,2.24-2.23V27.38A16.83,16.83,0,0,0,74.71,22l-.3-.72h.17a2.25,2.25,0,0,0,2.24-2.24V18a1.72,1.72,0,0,0-1.73-1.82,2.15,2.15,0,0,0-.56.07l-2,.55-2.09-5.08A4.87,4.87,0,0,0,66.84,9H46.14a4.87,4.87,0,0,0-3.62,2.72l-2.09,5.07-1.94-.53a1.85,1.85,0,0,0-.56-.08A1.72,1.72,0,0,0,36.19,18v.66h6.4ZM71.59,27.14V30a.91.91,0,0,1-.9.9h-6a.9.9,0,0,1-.9-.9V27.14a.89.89,0,0,1,.9-.89h6A.9.9,0,0,1,71.59,27.14Z" transform="translate(-5.54 -8.5)"/><path class="cls-3" d="M15.67,50.54a1.74,1.74,0,0,1-1.74-1.74V38.67a16.15,16.15,0,0,1,1-5.15l.58-1.41h-.89a1.74,1.74,0,0,1-1.74-1.74V29.29A1.23,1.23,0,0,1,14.14,28a1.52,1.52,0,0,1,.42.06l2.37.66,2.26-5.48a4.34,4.34,0,0,1,3.22-2.42H43a4.34,4.34,0,0,1,3.17,2.42l2.26,5.48,2.4-.66a1.52,1.52,0,0,1,.42-.06,1.23,1.23,0,0,1,1.24,1.33v1.08a1.74,1.74,0,0,1-1.74,1.73h-.92l.58,1.42a5.87,5.87,0,0,1,.22.6H40.3l-.19,0a7,7,0,0,0-5.28,4l-1.37,3.33-.12,0a4.33,4.33,0,0,0-1.13-.15,3.82,3.82,0,0,0-3.86,4v.56H20.1v3a1.74,1.74,0,0,1-1.74,1.74ZM18.44,37a1.4,1.4,0,0,0-1.4,1.4V41.3a1.4,1.4,0,0,0,1.4,1.39h6a1.4,1.4,0,0,0,1.4-1.39V38.43a1.4,1.4,0,0,0-1.4-1.4Zm5.42-15.55a3.38,3.38,0,0,0-2.93,2l-3.17,7.72a1.74,1.74,0,0,0,.09,1.64,1.72,1.72,0,0,0,1.48.7H46.06a1.72,1.72,0,0,0,1.48-.7,1.74,1.74,0,0,0,.1-1.64l-3.17-7.72a3.38,3.38,0,0,0-2.93-2Z" transform="translate(-5.54 -8.5)"/><path class="cls-3" d="M43,21.28a3.93,3.93,0,0,1,2.77,2.11l2.09,5.07.33.82.86-.23,2-.55a1.35,1.35,0,0,1,.28,0,.74.74,0,0,1,.74.83v1.08a1.24,1.24,0,0,1-1.26,1.23H49.12L49.69,33l.26.63H47.43a2.09,2.09,0,0,0,.53-.54A2.24,2.24,0,0,0,48.1,31l-3.17-7.72a3.89,3.89,0,0,0-2-2H43m-20.48,0a3.91,3.91,0,0,0-2,2L17.3,31a2.1,2.1,0,0,0,2,3H38.61a7.51,7.51,0,0,0-4.25,4l-1.2,2.93a4.45,4.45,0,0,0-.95-.1,4.3,4.3,0,0,0-4.36,4.45v.06H19.6V48.8A1.25,1.25,0,0,1,18.35,50H15.67a1.25,1.25,0,0,1-1.24-1.24V38.67a15.84,15.84,0,0,1,1-5l.3-.72.55-1.38H14.64a1.25,1.25,0,0,1-1.24-1.24V29.29a.74.74,0,0,1,.74-.83,1,1,0,0,1,.29.05l1.94.53.86.24.34-.82,2.08-5.08a3.94,3.94,0,0,1,2.77-2.1h.08M18.44,43.19h6a1.9,1.9,0,0,0,1.9-1.89V38.43a1.9,1.9,0,0,0-1.9-1.9h-6a1.9,1.9,0,0,0-1.9,1.9V41.3a1.9,1.9,0,0,0,1.9,1.89M43.06,20.28H22.34A4.91,4.91,0,0,0,18.72,23l-2.08,5.07-2-.54a2.09,2.09,0,0,0-.55-.08,1.73,1.73,0,0,0-1.74,1.83v1.08a2.25,2.25,0,0,0,2.24,2.24h.14l-.29.72a16.85,16.85,0,0,0-1.06,5.34V48.8A2.24,2.24,0,0,0,15.67,51h2.69A2.24,2.24,0,0,0,20.6,48.8V46.31h8.25V45.25a3.33,3.33,0,0,1,3.36-3.45,3.81,3.81,0,0,1,1,.13l.55.15,1.53-3.73a6.46,6.46,0,0,1,4.9-3.72H51.34a9.73,9.73,0,0,0-.43-1.29l-.29-.73h.17A2.24,2.24,0,0,0,53,30.37V29.29a1.73,1.73,0,0,0-1.74-1.83,2.09,2.09,0,0,0-.55.08l-2,.54L46.68,23a4.91,4.91,0,0,0-3.62-2.73ZM19.33,33a1.11,1.11,0,0,1-1.11-1.65l3.17-7.72A2.9,2.9,0,0,1,23.86,22H41.54A2.89,2.89,0,0,1,44,23.64l3.17,7.72A1.11,1.11,0,0,1,46.06,33Zm-.89,9.18a.89.89,0,0,1-.9-.89V38.43a.91.91,0,0,1,.9-.9h6a.9.9,0,0,1,.9.9V41.3a.89.89,0,0,1-.9.89Z" transform="translate(-5.54 -8.5)"/><path class="cls-2" d="M68.87,48.57a2.24,2.24,0,0,0,2.23-2.24V45.25a1.72,1.72,0,0,0-1.73-1.83,2.23,2.23,0,0,0-.56.08l-2,.55L64.75,39a4.84,4.84,0,0,0-3.62-2.72H40.43A4.84,4.84,0,0,0,36.81,39L34.72,44l-1.94-.54a2.23,2.23,0,0,0-.56-.08,1.72,1.72,0,0,0-1.73,1.83v1.08a2.24,2.24,0,0,0,2.23,2.24h.15l-.3.72a16.83,16.83,0,0,0-1.05,5.34V64.76A2.24,2.24,0,0,0,33.76,67h2.69a2.23,2.23,0,0,0,2.23-2.24V62.27H62.89v2.49A2.24,2.24,0,0,0,65.13,67h2.69a2.23,2.23,0,0,0,2.23-2.24V54.63a16.83,16.83,0,0,0-1-5.34l-.3-.72h.17ZM36.31,47.32l3.16-7.72A2.9,2.9,0,0,1,41.94,38H59.62a2.89,2.89,0,0,1,2.47,1.65l3.17,7.72A1.12,1.12,0,0,1,64.15,49H37.41A1.11,1.11,0,0,1,36.31,47.32Zm7.15,9.94a.89.89,0,0,1-.89.89h-6a.89.89,0,0,1-.89-.89V54.39a.9.9,0,0,1,.89-.9h6a.9.9,0,0,1,.89.9Zm22.42,0a.89.89,0,0,1-.9.89h-6a.89.89,0,0,1-.9-.89V54.39a.91.91,0,0,1,.9-.9h6a.9.9,0,0,1,.9.9Z" transform="translate(-5.54 -8.5)"/><path class="cls-3" d="M98.21,45.83A6.15,6.15,0,0,1,96,48.07,6.4,6.4,0,0,1,88.44,47q-1.65-1.87-1.65-5.82V30h5V41.23a4.83,4.83,0,0,0,.68,2.9,2.4,2.4,0,0,0,2,.88,5.07,5.07,0,0,0,2-.38,3.47,3.47,0,0,0,1.4-1.14V30h5V48.5H98.65Z" transform="translate(-5.54 -8.5)"/><path class="cls-3" d="M113,25.48V30h3.11v3.5H113v9.42a2.21,2.21,0,0,0,.44,1.54,1.63,1.63,0,0,0,1.2.46,4,4,0,0,0,1.33-.19l.43,3.61a9.37,9.37,0,0,1-1.47.38,8.45,8.45,0,0,1-1.55.13,5.32,5.32,0,0,1-4-1.42A6.19,6.19,0,0,1,108,43V33.51h-2.7V30H108V25.48Z" transform="translate(-5.54 -8.5)"/><path class="cls-3" d="M124.84,25.58h-5V21.84h5Zm0,22.92h-5V30h5Z" transform="translate(-5.54 -8.5)"/><path class="cls-3" d="M134.53,48.5h-5V21.84h5Z" transform="translate(-5.54 -8.5)"/><path class="cls-3" d="M144.23,25.58h-5V21.84h5Zm0,22.92h-5V30h5Z" transform="translate(-5.54 -8.5)"/><path class="cls-3" d="M150.62,48.5v-16h-2.89V30h2.89V27.67a6.33,6.33,0,0,1,1.54-4.57,5.69,5.69,0,0,1,4.32-1.62,6.77,6.77,0,0,1,1.17.1c.39.06.83.15,1.31.26l-.42,2.56-.74-.12a8.76,8.76,0,0,0-.91-.05,2.68,2.68,0,0,0-2.19.88,4,4,0,0,0-.72,2.56V30h3.85V32.5H154v16Z" transform="translate(-5.54 -8.5)"/><path class="cls-3" d="M165.29,48.5h-3.37V21.84h3.37Z" transform="translate(-5.54 -8.5)"/><path class="cls-3" d="M178.49,48.86a7.82,7.82,0,0,1-6.15-2.57,9.7,9.7,0,0,1-2.28-6.68v-.75a9.47,9.47,0,0,1,2.35-6.57A7.23,7.23,0,0,1,178,29.67a7,7,0,0,1,5.66,2.25,9,9,0,0,1,1.92,6V40h-12l-.05.08a7.23,7.23,0,0,0,1.35,4.38,4.3,4.3,0,0,0,3.64,1.71,8.35,8.35,0,0,0,3-.49,6.84,6.84,0,0,0,2.23-1.34L185,46.57a7.94,7.94,0,0,1-2.61,1.64A10.67,10.67,0,0,1,178.49,48.86ZM178,32.32a3.63,3.63,0,0,0-2.88,1.42,6.7,6.7,0,0,0-1.47,3.57l0,.08h8.53V37a5.13,5.13,0,0,0-1.06-3.31A3.81,3.81,0,0,0,178,32.32Z" transform="translate(-5.54 -8.5)"/><path class="cls-3" d="M197.35,48.86a7.82,7.82,0,0,1-6.15-2.57,9.7,9.7,0,0,1-2.28-6.68v-.75a9.47,9.47,0,0,1,2.35-6.57,7.23,7.23,0,0,1,5.56-2.62,7,7,0,0,1,5.66,2.25,9,9,0,0,1,1.91,6V40h-12l0,.08a7.23,7.23,0,0,0,1.35,4.38,4.29,4.29,0,0,0,3.64,1.71,8.33,8.33,0,0,0,3-.49,6.78,6.78,0,0,0,2.24-1.34l1.31,2.19a7.94,7.94,0,0,1-2.61,1.64A10.71,10.71,0,0,1,197.35,48.86Zm-.52-16.54A3.63,3.63,0,0,0,194,33.74a6.79,6.79,0,0,0-1.48,3.57l0,.08H201V37A5.19,5.19,0,0,0,200,33.64,3.81,3.81,0,0,0,196.83,32.32Z" transform="translate(-5.54 -8.5)"/><path class="cls-3" d="M213,25.55V30h3.51V32.5H213V43.73a2.5,2.5,0,0,0,.54,1.83,2,2,0,0,0,1.43.53,3,3,0,0,0,.64-.07,3.27,3.27,0,0,0,.62-.17l.45,2.31a3.05,3.05,0,0,1-1.1.5,5.72,5.72,0,0,1-1.47.2,4.35,4.35,0,0,1-3.26-1.24,5.38,5.38,0,0,1-1.21-3.89V32.5h-2.94V30h2.94V25.55Z" transform="translate(-5.54 -8.5)"/></svg>