<?xml version="1.0" encoding="utf-8"?>
<!-- Generator: Adobe Illustrator 22.1.0, SVG Export Plug-In . SVG Version: 6.00 Build 0)  -->
<svg version="1.1" id="Layer_1" xmlns="http://www.w3.org/2000/svg" xmlns:xlink="http://www.w3.org/1999/xlink" x="0px" y="0px"
	 viewBox="0 0 841.9 595.3" style="enable-background:new 0 0 841.9 595.3;" xml:space="preserve">
<style type="text/css">
	.st0{fill:#FFFFFF;stroke:#FFFFFF;stroke-miterlimit:10;}
	.st1{fill:#FFFFFF;}
</style>
<g>
	<path class="st0" d="M425.8,103c2.8-6.9,11.3-12.5,18.8-12.5H579c7.5,0,15.9,5.6,18.8,12.5l24.1,58.2c2.8,6.9-1,12.5-8.4,12.5H446
		c1,1.6,1.8,3.3,2.5,5l11.7,28.2l4.4-1.2c2.5-0.7,5-1,7.5-1c14.6,0,25.6,11.2,25.6,26v8.1c0,10.6-5.8,19.9-14.3,25
		c0.7,2.2,1.4,4.6,2,7h62.6l0.9,0.1c3.7,0.5,7.3,1.5,10.8,3h44.2h0.1v18.8c0,9.3,7.6,16.9,17,16.9h20.3h0.1c9.4,0,17-7.6,17-16.9
		v-76.4c0-11.5-3.6-29.6-8-40.2l-2.3-5.5h1.2h0.1c9.4,0,17-7.6,17-16.9v-8.1c0-8-5.5-13.7-13.2-13.7c-1.4,0-2.8,0.2-4.3,0.6l-15,4.1
		L618,98.3c-4.3-10.3-16.1-18.9-27.5-20.5h-0.1H433c-11.4,1.6-23.2,10.2-27.5,20.5l-15.8,38.2l-14.8-4c-1.4-0.4-2.9-0.6-4.2-0.6
		c-7.6,0-13.2,5.8-13.2,13.7v4.9h48.7L425.8,103z M626.5,214.5v21.6c0,3.7-3.1,6.7-6.8,6.7h-46c-3.7,0-6.8-3-6.8-6.7v-21.6
		c0-3.7,3.1-6.7,6.8-6.7h46C623.5,207.7,626.5,210.8,626.5,214.5z"/>
	<g>
		<path class="st1" d="M201.5,394.1c-9.1,0-16.5-7.3-16.5-16.4v-76.4c0-11.5,3.6-29.4,8-40l2.6-6.2h-1.8c-9.1,0-16.5-7.3-16.5-16.4
			v-8.1c0-7.7,5.3-13.2,12.7-13.2c1.4,0,2.8,0.2,4.1,0.6l15.2,4.2l16-38.6c4.2-10.1,15.6-18.6,27.1-20.2l157.4,0
			c11.5,1.6,22.9,10.1,27.1,20.2l16,38.7l15.4-4.2c1.4-0.4,2.7-0.6,4.1-0.6c7.3,0,12.7,5.6,12.7,13.2v8.1c0,9-7.4,16.4-16.5,16.4
			h-2.1l2.6,6.2c1.1,2.6,2.1,5.6,3.1,9h-83.3l-0.9,0.1c-16.2,2.3-31.7,13.9-37.6,28.3l-11.5,27.7l-3.7-1c-2.6-0.7-5.2-1.1-7.7-1.1
			c-14.9,0-26.1,11.4-26.1,26.5v7.5h-62.7v19.3c0,9-7.4,16.4-16.5,16.4H201.5z M222.5,292.3c-4,0-7.3,3.2-7.3,7.2v21.6
			c0,4,3.3,7.2,7.3,7.2h46c4,0,7.3-3.2,7.3-7.2v-21.6c0-4-3.3-7.2-7.3-7.2H222.5z M263.7,175.1c-7.7,0-16.3,5.7-19.2,12.8
			l-24.1,58.2c-1.4,3.5-1.3,6.8,0.4,9.3c1.7,2.5,4.7,3.9,8.5,3.9h203.2c3.8,0,6.8-1.4,8.5-3.9c1.7-2.5,1.8-5.8,0.4-9.3l-24.1-58.2
			c-2.9-7.1-11.5-12.8-19.2-12.8H263.7z"/>
		<path class="st1" d="M409.6,163.8c11.2,1.6,22.6,10.2,26.7,19.9l15.9,38.3l0.3,0.8l0.9-0.2l15-4.1c1.3-0.4,2.6-0.6,4-0.6
			c7,0,12.2,5.4,12.2,12.7v8.1c0,8.7-7.2,15.9-16,15.9h-0.1h-1.2h-1.5l0.6,1.4l2.3,5.5c1,2.4,1.9,5.2,2.9,8.3h-82.6h-0.1l-0.1,0
			l-0.9,0.1c-16.4,2.3-32,14.1-38,28.6l-11.3,27.3L335,325c-2.6-0.7-5.3-1.1-7.9-1.1c-15.1,0-26.6,11.6-26.6,27v7h-61.7h-1v1v18.8
			c0,8.7-7.2,15.9-16,15.9h-0.1h-20.3c-8.8,0-16-7.1-16-15.9v-76.4c0-11.4,3.6-29.3,7.9-39.8l2.3-5.5l0.6-1.4h-1.5h-0.1h-1
			c-8.8,0-16-7.1-16-15.9v-8.1c0-7.4,5.1-12.7,12.2-12.7c1.3,0,2.7,0.2,4,0.6l14.8,4l0.9,0.2l0.3-0.8l15.8-38.2
			c4-9.7,15.5-18.3,26.7-19.9H409.6L409.6,163.8 M229.3,259.7h203.2c4,0,7.1-1.5,8.9-4.1c1.8-2.6,1.9-6.1,0.4-9.7l-24.1-58.2
			c-3-7.2-11.8-13.1-19.7-13.1H263.7c-7.9,0-16.7,5.9-19.7,13.1l-24.1,58.2c-1.5,3.6-1.3,7.1,0.4,9.7
			C222.1,258.3,225.3,259.7,229.3,259.7 M222.5,328.9h46c4.3,0,7.8-3.5,7.8-7.7v-21.6c0-4.3-3.5-7.7-7.8-7.7h-46
			c-4.3,0-7.8,3.5-7.8,7.7v21.6C214.7,325.5,218.2,328.9,222.5,328.9 M409.6,162.8h-0.1H252.2c-11.4,1.6-23.2,10.2-27.5,20.5
			l-15.8,38.2l-14.8-4c-1.4-0.4-2.8-0.6-4.2-0.6c-7.6,0-13.2,5.8-13.2,13.7v8.1c0,9.3,7.6,16.9,17,16.9h1h0.1l-2.3,5.5
			c-4.4,10.7-8,28.7-8,40.2v76.4c0,9.3,7.6,16.9,17,16.9h20.3h0.1c9.4,0,17-7.6,17-16.9V359h62.7v-8c0-14.8,11-26,25.6-26
			c2.5,0,5.1,0.4,7.6,1l4.2,1.1l11.7-28.2c5.9-14.2,21.2-25.7,37.2-28l0.9-0.1h83.9c-1-3.6-2.1-6.9-3.3-9.7l-2.3-5.5h1.2h0.1
			c9.4,0,17-7.6,17-16.9v-8.1c0-8-5.5-13.7-13.2-13.7c-1.4,0-2.8,0.2-4.3,0.6l-15,4.1l-15.9-38.3C432.9,173,421.1,164.4,409.6,162.8
			L409.6,162.8z M229.3,258.7c-7.5,0-11.3-5.6-8.4-12.5l24.1-58.2c2.8-6.9,11.3-12.5,18.8-12.5h134.4c7.5,0,15.9,5.6,18.8,12.5
			l24.1,58.2c2.8,6.9-1,12.5-8.4,12.5H229.3L229.3,258.7z M222.5,327.9c-3.7,0-6.8-3-6.8-6.7v-21.6c0-3.7,3.1-6.7,6.8-6.7h46
			c3.7,0,6.8,3,6.8,6.7v21.6c0,3.7-3.1,6.7-6.8,6.7H222.5L222.5,327.9z"/>
	</g>
	<path class="st0" d="M605.8,376c9.4,0,17-7.6,17-16.9v-8.1c0-8-5.5-13.7-13.2-13.7c-1.4,0-2.8,0.2-4.3,0.6l-15,4.1l-15.9-38.3
		c-4.3-10.3-16.1-18.9-27.5-20.5H547H389.6c-11.4,1.6-23.2,10.2-27.5,20.5l-15.8,38.2l-14.8-4c-1.4-0.4-2.8-0.6-4.2-0.6
		c-7.6,0-13.2,5.8-13.2,13.7v8.1c0,9.3,7.6,16.9,17,16.9h1h0.1l-2.3,5.5c-4.4,10.7-8,28.7-8,40.2V498c0,9.3,7.6,16.9,17,16.9h20.3
		h0.1c9.4,0,17-7.6,17-16.9v-18.8h183.9h0.1V498c0,9.3,7.6,16.9,17,16.9h20.3h0.1c9.4,0,17-7.6,17-16.9v-76.4
		c0-11.5-3.6-29.6-8-40.2l-2.3-5.5L605.8,376L605.8,376L605.8,376z M358.3,366.6l24.1-58.2c2.8-6.9,11.3-12.5,18.8-12.5h134.4
		c7.5,0,15.9,5.6,18.8,12.5l24.1,58.2c2.8,6.9-1,12.5-8.4,12.5H366.7C359.3,379,355.5,373.4,358.3,366.6z M412.7,441.5
		c0,3.7-3.1,6.7-6.8,6.7h-46c-3.7,0-6.8-3-6.8-6.7v-21.6c0-3.7,3.1-6.7,6.8-6.7h46c3.7,0,6.8,3,6.8,6.7V441.5z M583.1,441.5
		c0,3.7-3.1,6.7-6.8,6.7h-46c-3.7,0-6.8-3-6.8-6.7v-21.6c0-3.7,3.1-6.7,6.8-6.7h46c3.7,0,6.8,3,6.8,6.7V441.5z"/>
</g>
</svg>
